<svg width="119" height="95" viewBox="0 0 119 95" fill="none" xmlns="http://www.w3.org/2000/svg">
<path d="M21.3 44.46C25.38 43.7 27.42 41.6 27.42 38.16C27.42 36.64 27.22 34.04 26.82 30.36C26.42 26.44 26.22 23.6 26.22 21.84C26.22 18.96 27.02 16.76 28.62 15.24C30.26 13.72 32.44 12.96 35.16 12.96H38.64V17.7H36.18C34.62 17.7 33.46 18.06 32.7 18.78C31.94 19.46 31.56 20.6 31.56 22.2C31.56 23.36 31.64 24.8 31.8 26.52C31.96 28.2 32.06 29.34 32.1 29.94C32.5 33.78 32.7 36.58 32.7 38.34C32.7 40.46 32.16 42.24 31.08 43.68C30.04 45.08 28.42 46.02 26.22 46.5V46.62C28.42 47.1 30.04 48.06 31.08 49.5C32.16 50.94 32.7 52.72 32.7 54.84C32.7 56.6 32.5 59.4 32.1 63.24C32.06 63.84 31.96 65 31.8 66.72C31.64 68.4 31.56 69.82 31.56 70.98C31.56 72.58 31.94 73.72 32.7 74.4C33.46 75.12 34.62 75.48 36.18 75.48H38.64V80.22H35.16C32.44 80.22 30.26 79.46 28.62 77.94C27.02 76.42 26.22 74.22 26.22 71.34C26.22 69.58 26.42 66.74 26.82 62.82C27.22 59.14 27.42 56.54 27.42 55.02C27.42 51.58 25.38 49.48 21.3 48.72V44.46ZM96.127 48.72C92.047 49.48 90.007 51.58 90.007 55.02C90.007 56.54 90.207 59.14 90.607 62.82C91.007 66.74 91.207 69.58 91.207 71.34C91.207 74.22 90.387 76.42 88.747 77.94C87.147 79.46 84.987 80.22 82.267 80.22H78.787V75.48H81.247C82.807 75.48 83.967 75.12 84.727 74.4C85.487 73.72 85.867 72.58 85.867 70.98C85.867 69.82 85.787 68.4 85.627 66.72C85.467 65 85.367 63.84 85.327 63.24C84.927 59.4 84.727 56.6 84.727 54.84C84.727 52.72 85.247 50.94 86.287 49.5C87.367 48.06 89.007 47.1 91.207 46.62V46.5C89.007 46.02 87.367 45.08 86.287 43.68C85.247 42.24 84.727 40.46 84.727 38.34C84.727 36.58 84.927 33.78 85.327 29.94C85.367 29.34 85.467 28.2 85.627 26.52C85.787 24.8 85.867 23.36 85.867 22.2C85.867 20.6 85.487 19.46 84.727 18.78C83.967 18.06 82.807 17.7 81.247 17.7H78.787V12.96H82.267C84.987 12.96 87.147 13.72 88.747 15.24C90.387 16.76 91.207 18.96 91.207 21.84C91.207 23.6 91.007 26.44 90.607 30.36C90.207 34.04 90.007 36.64 90.007 38.16C90.007 41.6 92.047 43.7 96.127 44.46V48.72Z" fill="#717171"/>
</svg>
